<svg xmlns="http://www.w3.org/2000/svg" width="24" height="24" fill="none" viewBox="0 0 24 24">
  <path fill="#fff" d="M0 0h24v24H0z"/>
  <path fill="#20BDC9" d="M12 21.102a5.773 5.773 0 0 1-5.767-5.766V13.53a.223.223 0 0 1 .446 0v1.806A5.326 5.326 0 0 0 12 20.656a5.326 5.326 0 0 0 5.32-5.32V4.248a.223.223 0 1 1 .447 0v11.088A5.773 5.773 0 0 1 12 21.102Z"/>
  <path fill="#1F85AE" d="M7.57 12.193a.223.223 0 1 1-.445 0 .223.223 0 0 1 .445 0Z"/>
  <path fill="#0073BB" d="M8.461 13.307a.223.223 0 1 1-.445 0 .223.223 0 0 1 .445 0Z"/>
  <path fill="#CD3595" d="M12 17.538a2.204 2.204 0 0 1-2.202-2.201v-.694a.222.222 0 1 1 .446 0v.694a1.757 1.757 0 0 0 3.512 0V2.689a.223.223 0 0 1 .446 0v12.648A2.204 2.204 0 0 1 12 17.538Z"/>
  <path fill="#843392" d="M9.353 12.75a.223.223 0 1 1-.446 0 .223.223 0 0 1 .446 0ZM12 18.429a3.096 3.096 0 0 1-3.093-3.092v-.47a.223.223 0 0 1 .445 0v.47A2.65 2.65 0 0 0 12 17.983a2.65 2.65 0 0 0 2.647-2.646V2.243a.223.223 0 0 1 .446 0v13.094A3.096 3.096 0 0 1 12 18.429Z"/>
  <path fill="#843392" d="M9.13 14.42a.223.223 0 0 1-.223-.222v-.668a.223.223 0 1 1 .446 0v.668c0 .123-.1.223-.223.223Z"/>
  <path fill="#CD3595" d="M10.244 13.864a.223.223 0 1 1-.446 0 .223.223 0 0 1 .446 0Z"/>
  <path fill="#0073BB" d="M12 19.32a3.988 3.988 0 0 1-3.984-3.983v-1.25a.223.223 0 1 1 .446 0v1.25A3.542 3.542 0 0 0 12 18.874a3.542 3.542 0 0 0 3.538-3.537V3.357a.223.223 0 0 1 .446 0v11.98A3.988 3.988 0 0 1 12 19.32Z"/>
  <path fill="#1F85AE" d="M7.347 13.864a.223.223 0 0 1-.222-.223v-.668a.223.223 0 0 1 .445 0v.668c0 .123-.1.223-.223.223Z"/>
  <path fill="#1F85AE" d="M12 20.21a4.88 4.88 0 0 1-4.875-4.873v-1.028a.223.223 0 0 1 .445 0v1.028A4.434 4.434 0 0 0 12 19.765a4.434 4.434 0 0 0 4.43-4.428V2.912a.223.223 0 0 1 .446 0v12.425A4.88 4.88 0 0 1 12 20.21Z"/>
  <path fill="#20BDC9" d="M6.679 12.75a.223.223 0 1 1-.446 0 .223.223 0 0 1 .446 0Z"/>
  <path fill="#45BD95" d="M5.788 11.636a.223.223 0 1 1-.445 0 .223.223 0 0 1 .445 0ZM12 21.993a6.664 6.664 0 0 1-6.658-6.656v-1.585a.223.223 0 0 1 .446 0v1.585A6.218 6.218 0 0 0 12 21.547a6.218 6.218 0 0 0 6.212-6.21V3.802a.223.223 0 0 1 .446 0v11.535A6.665 6.665 0 0 1 12 21.993Zm-6.435-8.686a.223.223 0 0 1-.223-.223v-.668a.223.223 0 1 1 .446 0v.668c0 .123-.1.223-.223.223Z"/>
</svg>
